<?xml version="1.0" encoding="UTF-8" standalone="no"?>
<!-- Generator: Adobe Illustrator 21.0.0, SVG Export Plug-In . SVG Version: 6.00 Build 0)  -->

<svg
   xmlns:osb="http://www.openswatchbook.org/uri/2009/osb"
   xmlns:dc="http://purl.org/dc/elements/1.1/"
   xmlns:cc="http://creativecommons.org/ns#"
   xmlns:rdf="http://www.w3.org/1999/02/22-rdf-syntax-ns#"
   xmlns:svg="http://www.w3.org/2000/svg"
   xmlns="http://www.w3.org/2000/svg"
   xmlns:xlink="http://www.w3.org/1999/xlink"
   xmlns:sodipodi="http://sodipodi.sourceforge.net/DTD/sodipodi-0.dtd"
   xmlns:inkscape="http://www.inkscape.org/namespaces/inkscape"
   version="1.1"
   x="0px"
   y="0px"
   viewBox="0 0 610.24316 209.50012"
   xml:space="preserve"
   id="svg2"
   inkscape:version="0.91 r13725"
   sodipodi:docname="PDIS-logo-revised.svg"
   inkscape:export-filename="D:\ownCloud\PDIS\pdis logo temp\PDIS-logo-revised-white.png"
   inkscape:export-xdpi="90"
   inkscape:export-ydpi="90"
   width="610.24316"
   height="209.50012"><metadata
     id="metadata20"><rdf:RDF><cc:Work
         rdf:about=""><dc:format>image/svg+xml</dc:format><dc:type
           rdf:resource="http://purl.org/dc/dcmitype/StillImage" /><dc:title /></cc:Work></rdf:RDF></metadata><defs
     id="defs18"><linearGradient
       id="linearGradient4232"
       inkscape:collect="always"><stop
         id="stop4198"
         offset="0"
         style="stop-color:#edb2f6;stop-opacity:1;" /><stop
         id="stop4200"
         offset="1"
         style="stop-color:#4b0056;stop-opacity:1" /></linearGradient><linearGradient
       id="linearGradient4226"
       osb:paint="solid"><stop
         style="stop-color:#ffffff;stop-opacity:1;"
         offset="0"
         id="stop4228" /></linearGradient><clipPath
       clipPathUnits="userSpaceOnUse"
       id="clipPath4157-1"><rect
         style="fill:#000000;fill-opacity:1;stroke:#000000;stroke-width:1;stroke-linecap:butt;stroke-linejoin:miter;stroke-miterlimit:4;stroke-dasharray:none;stroke-dashoffset:2;stroke-opacity:1"
         id="rect4159-8"
         width="496.27118"
         height="295.93219"
         x="135.25424"
         y="341.69492" /></clipPath><clipPath
       clipPathUnits="userSpaceOnUse"
       id="clipPath4197"><rect
         style="fill:#000000;fill-opacity:1;stroke:#000000;stroke-width:1;stroke-linecap:butt;stroke-linejoin:miter;stroke-miterlimit:4;stroke-dasharray:none;stroke-dashoffset:2;stroke-opacity:1"
         id="rect4199"
         width="216.61017"
         height="247.11864"
         x="126.87203"
         y="374.56442" /></clipPath><clipPath
       clipPathUnits="userSpaceOnUse"
       id="clipPath4202"><rect
         y="341.57932"
         x="338.52847"
         height="296.16336"
         width="293.11252"
         id="rect4204"
         style="fill:#000000;fill-opacity:1;stroke:#000000;stroke-width:0.76882452;stroke-linecap:butt;stroke-linejoin:miter;stroke-miterlimit:4;stroke-dasharray:none;stroke-dashoffset:2;stroke-opacity:1" /></clipPath><clipPath
       clipPathUnits="userSpaceOnUse"
       id="clipPath4202-5"><rect
         y="341.57932"
         x="338.52847"
         height="296.16336"
         width="293.11252"
         id="rect4204-5"
         style="fill:#000000;fill-opacity:1;stroke:#000000;stroke-width:0.76882452;stroke-linecap:butt;stroke-linejoin:miter;stroke-miterlimit:4;stroke-dasharray:none;stroke-dashoffset:2;stroke-opacity:1" /></clipPath><clipPath
       clipPathUnits="userSpaceOnUse"
       id="clipPath4242"><rect
         style="fill:#000000;fill-opacity:1;stroke:#000000;stroke-width:1;stroke-linecap:butt;stroke-linejoin:miter;stroke-miterlimit:4;stroke-dasharray:none;stroke-dashoffset:2;stroke-opacity:1"
         id="rect4244"
         width="209.49153"
         height="217.62712"
         x="340.67795"
         y="372.53052" /></clipPath><clipPath
       clipPathUnits="userSpaceOnUse"
       id="clipPath4281"><rect
         style="fill:#000000;fill-opacity:1;stroke:#000000;stroke-width:0.39657739;stroke-linecap:butt;stroke-linejoin:miter;stroke-miterlimit:4;stroke-dasharray:none;stroke-dashoffset:2;stroke-opacity:1"
         id="rect4283"
         width="77.891548"
         height="296.53561"
         x="553.93561"
         y="341.39322" /></clipPath><clipPath
       clipPathUnits="userSpaceOnUse"
       id="clipPath4351"><rect
         style="fill:#000000;fill-opacity:1;stroke:#000000;stroke-width:1;stroke-linecap:butt;stroke-linejoin:miter;stroke-miterlimit:4;stroke-dasharray:none;stroke-dashoffset:2;stroke-opacity:1"
         id="rect4353"
         width="74.066437"
         height="177.61563"
         x="347.21008"
         y="387.21109" /></clipPath><clipPath
       clipPathUnits="userSpaceOnUse"
       id="clipPath4357"><rect
         style="fill:#000000;fill-opacity:1;stroke:#000000;stroke-width:1;stroke-linecap:butt;stroke-linejoin:miter;stroke-miterlimit:4;stroke-dasharray:none;stroke-dashoffset:2;stroke-opacity:1"
         id="rect4359"
         width="120.0883"
         height="196.31201"
         x="429.90564"
         y="384.33472" /></clipPath><linearGradient
       gradientTransform="translate(-174.64473,-397.72328)"
       inkscape:collect="always"
       xlink:href="#linearGradient4232"
       id="linearGradient4238"
       x1="465.15775"
       y1="358.41769"
       x2="465.15771"
       y2="631.67249"
       gradientUnits="userSpaceOnUse" /><clipPath
       clipPathUnits="userSpaceOnUse"
       id="clipPath4586"><g
         id="g4588"><text
           sodipodi:linespacing="125%"
           id="text4590"
           y="602.94324"
           x="799.71942"
           style="font-style:normal;font-variant:normal;font-weight:normal;font-stretch:normal;font-size:281.25px;line-height:125%;font-family:DokChampa;-inkscape-font-specification:DokChampa;text-align:end;letter-spacing:0px;word-spacing:0px;text-anchor:end;display:inline;fill:#000000;fill-opacity:1;stroke:none;stroke-width:1px;stroke-linecap:butt;stroke-linejoin:miter;stroke-opacity:1"
           xml:space="preserve"><tspan
             style="font-style:normal;font-variant:normal;font-weight:normal;font-stretch:normal;font-size:281.25px;font-family:DokChampa;-inkscape-font-specification:DokChampa;text-align:end;text-anchor:end"
             y="602.94324"
             x="799.71942"
             id="tspan4592"
             sodipodi:role="line">S</tspan></text>
<g
           id="g4594"><text
             sodipodi:linespacing="125%"
             id="text4596"
             y="603.63452"
             x="799.5838"
             style="font-style:normal;font-variant:normal;font-weight:normal;font-stretch:normal;font-size:281.25px;line-height:125%;font-family:Gautami;-inkscape-font-specification:Gautami;text-align:end;letter-spacing:0px;word-spacing:0px;text-anchor:end;display:inline;fill:#000000;fill-opacity:1;stroke:none;stroke-width:1px;stroke-linecap:butt;stroke-linejoin:miter;stroke-opacity:1"
             xml:space="preserve"><tspan
               style="font-style:normal;font-variant:normal;font-weight:normal;font-stretch:normal;font-size:306.25px;font-family:Gautami;-inkscape-font-specification:Gautami;text-align:end;text-anchor:end"
               y="603.63452"
               x="799.5838"
               id="tspan4598"
               sodipodi:role="line">S</tspan></text>
<g
             transform="translate(19.54473,-0.32712)"
             id="g4600"
             clip-path="url(#clipPath4197)"><path
               inkscape:connector-curvature="0"
               d="m 571.3,554.1 0,-153.2 28,0 0,153.2 -28,0 z"
               id="path4602" /><path
               inkscape:connector-curvature="0"
               d="m 513.8,430.6 c -7.3,-12.1 -17,-20.4 -29.2,-24.8 -8.9,-3.3 -22.8,-4.9 -41.6,-4.9 l -79.8,0 0,153.2 28,0 29.8,0 24.5,0 c 29.1,0 49.6,-7.3 61.5,-22 11.9,-14.7 17.8,-33.6 17.8,-56.9 -0.1,-17.6 -3.7,-32.5 -11,-44.6 z m -29.9,81.3 c -8,7.8 -20.6,11.7 -37.9,11.7 l -54.8,0 0,-92.3 54.2,0 c 14.6,0 24.6,1.4 30.2,4.1 5.6,2.7 10.3,7.7 14.3,15 3.9,7.3 5.9,16 5.9,26.2 0,15.7 -4,27.5 -11.9,35.3 z"
               id="path4604" /><path
               inkscape:connector-curvature="0"
               d="m 305.7,430.6 c -7.3,-12.1 -17,-20.4 -29.2,-24.8 -8.9,-3.3 -22.8,-4.9 -41.6,-4.9 l -79.8,0 0,203.4 28,0 0,-50.1 54.2,0 c 29.1,0 49.6,-7.3 61.5,-22 11.9,-14.7 17.8,-33.6 17.8,-56.9 0,-17.7 -3.6,-32.6 -10.9,-44.7 z m -29.9,81.3 c -8,7.8 -20.6,11.7 -37.9,11.7 l -54.8,0 0,-92.3 54.2,0 c 14.6,0 24.6,1.4 30.2,4.1 5.6,2.7 10.3,7.7 14.3,15 3.9,7.3 5.9,16 5.9,26.2 0.1,15.7 -3.9,27.5 -11.9,35.3 z"
               id="path4606" /><path
               inkscape:connector-curvature="0"
               d="m 765,496 c -8.6,-3.3 -23.5,-7.2 -44.8,-11.7 -21.7,-4.6 -35.7,-9.1 -41.9,-13.6 -6.2,-4.5 -9.3,-10.8 -9.3,-18.9 0,-8.8 4.2,-15.9 12.7,-21.4 8.5,-5.5 20.8,-8.3 36.9,-8.3 15.9,0 28.2,3.2 37,9.5 5.4,3.9 9.4,9.1 12,15.5 l 29.2,0 c -1.7,-7.5 -4.7,-14.3 -9.1,-20.3 -6.6,-9 -15.9,-16 -27.9,-20.8 -12,-4.8 -26,-7.3 -42,-7.3 -23.3,0 -41.8,5.2 -55.5,15.5 -13.7,10.3 -20.6,23.6 -20.6,39.9 0,9 2.4,17.2 7.2,24.3 4.8,7.2 11.5,13.1 20.1,17.8 8.6,4.7 23,9.3 43.4,13.9 22.8,5.2 37.6,9.2 44.5,12 6.9,2.8 12,6.5 15.4,10.9 3.4,4.4 5.1,9.6 5.1,15.5 0,10.1 -4.7,18.4 -14.1,24.7 -9.4,6.3 -22.5,9.5 -39.5,9.5 -11.8,0 -22.5,-1.9 -31.9,-5.6 -9.4,-3.7 -16.7,-8.7 -21.8,-14.9 -1.9,-2.3 -3.5,-5 -4.9,-8 l -29.6,0 c 3.4,13.7 10.9,25.1 22.5,34.1 15.8,12.2 37.1,18.4 63.7,18.4 17.1,0 31.7,-2.5 43.8,-7.4 12.1,-4.9 21.7,-12.1 28.8,-21.6 7,-9.4 10.6,-19.9 10.6,-31.4 0,-11.6 -3.4,-21.6 -10.1,-29.9 -6.8,-8.5 -16.7,-15.3 -29.9,-20.4 z"
               id="path4608" /></g><g
             transform="translate(-1.327,-0.32712)"
             id="g4610"
             clip-path="url(#clipPath4357)"><path
               inkscape:connector-curvature="0"
               d="m 571.3,554.1 0,-153.2 28,0 0,153.2 -28,0 z"
               id="path4612" /><path
               inkscape:connector-curvature="0"
               d="m 513.8,430.6 c -7.3,-12.1 -17,-20.4 -29.2,-24.8 -8.9,-3.3 -22.8,-4.9 -41.6,-4.9 l -79.8,0 0,153.2 28,0 29.8,0 24.5,0 c 29.1,0 49.6,-7.3 61.5,-22 11.9,-14.7 17.8,-33.6 17.8,-56.9 -0.1,-17.6 -3.7,-32.5 -11,-44.6 z m -29.9,81.3 c -8,7.8 -20.6,11.7 -37.9,11.7 l -54.8,0 0,-92.3 54.2,0 c 14.6,0 24.6,1.4 30.2,4.1 5.6,2.7 10.3,7.7 14.3,15 3.9,7.3 5.9,16 5.9,26.2 0,15.7 -4,27.5 -11.9,35.3 z"
               id="path4614" /><path
               inkscape:connector-curvature="0"
               d="m 305.7,430.6 c -7.3,-12.1 -17,-20.4 -29.2,-24.8 -8.9,-3.3 -22.8,-4.9 -41.6,-4.9 l -79.8,0 0,203.4 28,0 0,-50.1 54.2,0 c 29.1,0 49.6,-7.3 61.5,-22 11.9,-14.7 17.8,-33.6 17.8,-56.9 0,-17.7 -3.6,-32.6 -10.9,-44.7 z m -29.9,81.3 c -8,7.8 -20.6,11.7 -37.9,11.7 l -54.8,0 0,-92.3 54.2,0 c 14.6,0 24.6,1.4 30.2,4.1 5.6,2.7 10.3,7.7 14.3,15 3.9,7.3 5.9,16 5.9,26.2 0.1,15.7 -3.9,27.5 -11.9,35.3 z"
               id="path4616" /><path
               inkscape:connector-curvature="0"
               d="m 765,496 c -8.6,-3.3 -23.5,-7.2 -44.8,-11.7 -21.7,-4.6 -35.7,-9.1 -41.9,-13.6 -6.2,-4.5 -9.3,-10.8 -9.3,-18.9 0,-8.8 4.2,-15.9 12.7,-21.4 8.5,-5.5 20.8,-8.3 36.9,-8.3 15.9,0 28.2,3.2 37,9.5 5.4,3.9 9.4,9.1 12,15.5 l 29.2,0 c -1.7,-7.5 -4.7,-14.3 -9.1,-20.3 -6.6,-9 -15.9,-16 -27.9,-20.8 -12,-4.8 -26,-7.3 -42,-7.3 -23.3,0 -41.8,5.2 -55.5,15.5 -13.7,10.3 -20.6,23.6 -20.6,39.9 0,9 2.4,17.2 7.2,24.3 4.8,7.2 11.5,13.1 20.1,17.8 8.6,4.7 23,9.3 43.4,13.9 22.8,5.2 37.6,9.2 44.5,12 6.9,2.8 12,6.5 15.4,10.9 3.4,4.4 5.1,9.6 5.1,15.5 0,10.1 -4.7,18.4 -14.1,24.7 -9.4,6.3 -22.5,9.5 -39.5,9.5 -11.8,0 -22.5,-1.9 -31.9,-5.6 -9.4,-3.7 -16.7,-8.7 -21.8,-14.9 -1.9,-2.3 -3.5,-5 -4.9,-8 l -29.6,0 c 3.4,13.7 10.9,25.1 22.5,34.1 15.8,12.2 37.1,18.4 63.7,18.4 17.1,0 31.7,-2.5 43.8,-7.4 12.1,-4.9 21.7,-12.1 28.8,-21.6 7,-9.4 10.6,-19.9 10.6,-31.4 0,-11.6 -3.4,-21.6 -10.1,-29.9 -6.8,-8.5 -16.7,-15.3 -29.9,-20.4 z"
               id="path4618" /></g><g
             clip-path="url(#clipPath4351)"
             id="g4620"
             transform="translate(8.40904,-0.32712)"><path
               id="path4622"
               d="m 571.3,554.1 0,-153.2 28,0 0,153.2 -28,0 z"
               inkscape:connector-curvature="0" /><path
               id="path4624"
               d="m 513.8,430.6 c -7.3,-12.1 -17,-20.4 -29.2,-24.8 -8.9,-3.3 -22.8,-4.9 -41.6,-4.9 l -79.8,0 0,153.2 28,0 29.8,0 24.5,0 c 29.1,0 49.6,-7.3 61.5,-22 11.9,-14.7 17.8,-33.6 17.8,-56.9 -0.1,-17.6 -3.7,-32.5 -11,-44.6 z m -29.9,81.3 c -8,7.8 -20.6,11.7 -37.9,11.7 l -54.8,0 0,-92.3 54.2,0 c 14.6,0 24.6,1.4 30.2,4.1 5.6,2.7 10.3,7.7 14.3,15 3.9,7.3 5.9,16 5.9,26.2 0,15.7 -4,27.5 -11.9,35.3 z"
               inkscape:connector-curvature="0" /><path
               id="path4626"
               d="m 305.7,430.6 c -7.3,-12.1 -17,-20.4 -29.2,-24.8 -8.9,-3.3 -22.8,-4.9 -41.6,-4.9 l -79.8,0 0,203.4 28,0 0,-50.1 54.2,0 c 29.1,0 49.6,-7.3 61.5,-22 11.9,-14.7 17.8,-33.6 17.8,-56.9 0,-17.7 -3.6,-32.6 -10.9,-44.7 z m -29.9,81.3 c -8,7.8 -20.6,11.7 -37.9,11.7 l -54.8,0 0,-92.3 54.2,0 c 14.6,0 24.6,1.4 30.2,4.1 5.6,2.7 10.3,7.7 14.3,15 3.9,7.3 5.9,16 5.9,26.2 0.1,15.7 -3.9,27.5 -11.9,35.3 z"
               inkscape:connector-curvature="0" /><path
               id="path4628"
               d="m 765,496 c -8.6,-3.3 -23.5,-7.2 -44.8,-11.7 -21.7,-4.6 -35.7,-9.1 -41.9,-13.6 -6.2,-4.5 -9.3,-10.8 -9.3,-18.9 0,-8.8 4.2,-15.9 12.7,-21.4 8.5,-5.5 20.8,-8.3 36.9,-8.3 15.9,0 28.2,3.2 37,9.5 5.4,3.9 9.4,9.1 12,15.5 l 29.2,0 c -1.7,-7.5 -4.7,-14.3 -9.1,-20.3 -6.6,-9 -15.9,-16 -27.9,-20.8 -12,-4.8 -26,-7.3 -42,-7.3 -23.3,0 -41.8,5.2 -55.5,15.5 -13.7,10.3 -20.6,23.6 -20.6,39.9 0,9 2.4,17.2 7.2,24.3 4.8,7.2 11.5,13.1 20.1,17.8 8.6,4.7 23,9.3 43.4,13.9 22.8,5.2 37.6,9.2 44.5,12 6.9,2.8 12,6.5 15.4,10.9 3.4,4.4 5.1,9.6 5.1,15.5 0,10.1 -4.7,18.4 -14.1,24.7 -9.4,6.3 -22.5,9.5 -39.5,9.5 -11.8,0 -22.5,-1.9 -31.9,-5.6 -9.4,-3.7 -16.7,-8.7 -21.8,-14.9 -1.9,-2.3 -3.5,-5 -4.9,-8 l -29.6,0 c 3.4,13.7 10.9,25.1 22.5,34.1 15.8,12.2 37.1,18.4 63.7,18.4 17.1,0 31.7,-2.5 43.8,-7.4 12.1,-4.9 21.7,-12.1 28.8,-21.6 7,-9.4 10.6,-19.9 10.6,-31.4 0,-11.6 -3.4,-21.6 -10.1,-29.9 -6.8,-8.5 -16.7,-15.3 -29.9,-20.4 z"
               inkscape:connector-curvature="0" /></g><g
             transform="translate(-10.890882,0.46088504)"
             id="g4630"
             clip-path="url(#clipPath4281)"><path
               inkscape:connector-curvature="0"
               d="m 571.3,554.1 0,-153.2 28,0 0,153.2 -28,0 z"
               id="path4632" /><path
               inkscape:connector-curvature="0"
               d="m 513.8,430.6 c -7.3,-12.1 -17,-20.4 -29.2,-24.8 -8.9,-3.3 -22.8,-4.9 -41.6,-4.9 l -79.8,0 0,153.2 28,0 29.8,0 24.5,0 c 29.1,0 49.6,-7.3 61.5,-22 11.9,-14.7 17.8,-33.6 17.8,-56.9 -0.1,-17.6 -3.7,-32.5 -11,-44.6 z m -29.9,81.3 c -8,7.8 -20.6,11.7 -37.9,11.7 l -54.8,0 0,-92.3 54.2,0 c 14.6,0 24.6,1.4 30.2,4.1 5.6,2.7 10.3,7.7 14.3,15 3.9,7.3 5.9,16 5.9,26.2 0,15.7 -4,27.5 -11.9,35.3 z"
               id="path4634" /><path
               inkscape:connector-curvature="0"
               d="m 305.7,430.6 c -7.3,-12.1 -17,-20.4 -29.2,-24.8 -8.9,-3.3 -22.8,-4.9 -41.6,-4.9 l -79.8,0 0,203.4 28,0 0,-50.1 54.2,0 c 29.1,0 49.6,-7.3 61.5,-22 11.9,-14.7 17.8,-33.6 17.8,-56.9 0,-17.7 -3.6,-32.6 -10.9,-44.7 z m -29.9,81.3 c -8,7.8 -20.6,11.7 -37.9,11.7 l -54.8,0 0,-92.3 54.2,0 c 14.6,0 24.6,1.4 30.2,4.1 5.6,2.7 10.3,7.7 14.3,15 3.9,7.3 5.9,16 5.9,26.2 0.1,15.7 -3.9,27.5 -11.9,35.3 z"
               id="path4636" /><path
               inkscape:connector-curvature="0"
               d="m 765,496 c -8.6,-3.3 -23.5,-7.2 -44.8,-11.7 -21.7,-4.6 -35.7,-9.1 -41.9,-13.6 -6.2,-4.5 -9.3,-10.8 -9.3,-18.9 0,-8.8 4.2,-15.9 12.7,-21.4 8.5,-5.5 20.8,-8.3 36.9,-8.3 15.9,0 28.2,3.2 37,9.5 5.4,3.9 9.4,9.1 12,15.5 l 29.2,0 c -1.7,-7.5 -4.7,-14.3 -9.1,-20.3 -6.6,-9 -15.9,-16 -27.9,-20.8 -12,-4.8 -26,-7.3 -42,-7.3 -23.3,0 -41.8,5.2 -55.5,15.5 -13.7,10.3 -20.6,23.6 -20.6,39.9 0,9 2.4,17.2 7.2,24.3 4.8,7.2 11.5,13.1 20.1,17.8 8.6,4.7 23,9.3 43.4,13.9 22.8,5.2 37.6,9.2 44.5,12 6.9,2.8 12,6.5 15.4,10.9 3.4,4.4 5.1,9.6 5.1,15.5 0,10.1 -4.7,18.4 -14.1,24.7 -9.4,6.3 -22.5,9.5 -39.5,9.5 -11.8,0 -22.5,-1.9 -31.9,-5.6 -9.4,-3.7 -16.7,-8.7 -21.8,-14.9 -1.9,-2.3 -3.5,-5 -4.9,-8 l -29.6,0 c 3.4,13.7 10.9,25.1 22.5,34.1 15.8,12.2 37.1,18.4 63.7,18.4 17.1,0 31.7,-2.5 43.8,-7.4 12.1,-4.9 21.7,-12.1 28.8,-21.6 7,-9.4 10.6,-19.9 10.6,-31.4 0,-11.6 -3.4,-21.6 -10.1,-29.9 -6.8,-8.5 -16.7,-15.3 -29.9,-20.4 z"
               id="path4638" /></g></g></g></clipPath></defs><sodipodi:namedview
     pagecolor="#ffffff"
     bordercolor="#666666"
     borderopacity="1"
     objecttolerance="10"
     gridtolerance="10"
     guidetolerance="10"
     inkscape:pageopacity="0"
     inkscape:pageshadow="2"
     inkscape:window-width="1920"
     inkscape:window-height="1005"
     id="namedview16"
     showgrid="false"
     inkscape:zoom="1.3906433"
     inkscape:cx="307.10547"
     inkscape:cy="67.187271"
     inkscape:window-x="-9"
     inkscape:window-y="-9"
     inkscape:window-maximized="1"
     inkscape:current-layer="layer4"
     fit-margin-top="0"
     fit-margin-left="0"
     fit-margin-right="0"
     fit-margin-bottom="0"><inkscape:grid
       type="xygrid"
       id="grid4153"
       originx="-174.64473"
       originy="-352.77661" /></sodipodi:namedview><style
     type="text/css"
     id="style4">
	.st0{fill:#FFFFFF;}
	.st1{fill:#FFF873;}
	.st2{fill:#61AEFC;}
	.st3{fill:#ED7C77;}
	.st4{fill:#7FF8DF;}
	.st5{fill:#636363;}
	.st6{fill:none;stroke:#636363;stroke-miterlimit:10;}
	.st7{fill:#636363;stroke:#000000;stroke-miterlimit:10;}
	.st8{fill:none;stroke:#000000;stroke-miterlimit:10;}
	.st9{fill:none;stroke:#000000;stroke-width:2;stroke-miterlimit:10;}
	.st10{fill:none;stroke:#FFFFFF;stroke-width:2;stroke-miterlimit:10;}
</style><g
     inkscape:groupmode="layer"
     id="layer7"
     inkscape:label="bg"
     style="display:none"><rect
       style="display:inline;fill:url(#linearGradient4238);fill-opacity:1;stroke:none;stroke-width:1;stroke-linecap:butt;stroke-linejoin:miter;stroke-miterlimit:4;stroke-dasharray:none;stroke-dashoffset:2;stroke-opacity:1"
       id="rect4224"
       width="733.47345"
       height="273.25482"
       x="-67.594612"
       y="-37.867409" /></g><g
     id="Layer_2"
     transform="translate(-174.64473,-397.72327)" /><g
     inkscape:groupmode="layer"
     id="layer1"
     inkscape:label="s"
     style="display:inline"
     transform="translate(-174.64473,-397.72327)" /><g
     inkscape:groupmode="layer"
     id="layer5"
     inkscape:label="s 1"
     style="display:inline"
     transform="translate(-174.64473,-397.72327)" /><g
     inkscape:groupmode="layer"
     id="layer6"
     inkscape:label="s 2"
     style="display:none"
     transform="translate(-174.64473,-397.72327)"><text
       xml:space="preserve"
       style="font-style:normal;font-variant:normal;font-weight:normal;font-stretch:normal;font-size:281.25px;line-height:125%;font-family:Mangal;-inkscape-font-specification:Mangal;text-align:end;letter-spacing:0px;word-spacing:0px;text-anchor:end;display:inline;fill:#000000;fill-opacity:1;stroke:none;stroke-width:1px;stroke-linecap:butt;stroke-linejoin:miter;stroke-opacity:1"
       x="790.87238"
       y="609.24841"
       id="text4316"
       sodipodi:linespacing="125%"><tspan
         sodipodi:role="line"
         id="tspan4318"
         x="790.87238"
         y="609.24841"
         style="font-style:normal;font-variant:normal;font-weight:normal;font-stretch:normal;font-size:306.25px;font-family:'MS PGothic';-inkscape-font-specification:'MS PGothic';text-align:end;text-anchor:end">S</tspan></text>
</g><g
     inkscape:groupmode="layer"
     id="layer2"
     inkscape:label="p"
     transform="translate(-174.64473,-397.72327)"
     style="display:inline" /><g
     inkscape:groupmode="layer"
     id="layer3"
     inkscape:label="d"
     transform="translate(-174.64473,-397.72327)"
     style="display:inline" /><g
     inkscape:groupmode="layer"
     id="layer4"
     inkscape:label="i"
     transform="translate(-174.64473,-397.72327)"
     style="display:inline"><rect
       style="display:inline;fill:#ffffff;fill-opacity:1;stroke:none;stroke-width:1;stroke-linecap:butt;stroke-linejoin:miter;stroke-miterlimit:4;stroke-dasharray:none;stroke-dashoffset:2;stroke-opacity:1"
       id="rect4224-5"
       width="733.47345"
       height="273.25482"
       x="107.05012"
       y="359.85587"
       clip-path="url(#clipPath4586)" /></g></svg>