<?xml version="1.0" encoding="utf-8"?>
<!-- Generator: Adobe Illustrator 21.0.0, SVG Export Plug-In . SVG Version: 6.00 Build 0)  -->
<svg version="1.1" xmlns="http://www.w3.org/2000/svg" xmlns:xlink="http://www.w3.org/1999/xlink" x="0px" y="0px"
	 viewBox="0 0 960 960" style="enable-background:new 0 0 960 960;" xml:space="preserve">
<style type="text/css">
	.st0{fill:#FFFFFF;}
	.st1{fill:#FFF873;}
	.st2{fill:#61AEFC;}
	.st3{fill:#ED7C77;}
	.st4{fill:#7FF8DF;}
	.st5{fill:#636363;}
	.st6{fill:none;stroke:#636363;stroke-miterlimit:10;}
	.st7{fill:#636363;stroke:#000000;stroke-miterlimit:10;}
	.st8{fill:none;stroke:#000000;stroke-miterlimit:10;}
	.st9{fill:none;stroke:#000000;stroke-width:2;stroke-miterlimit:10;}
	.st10{fill:none;stroke:#FFFFFF;stroke-width:2;stroke-miterlimit:10;}
</style>
<g id="Layer_1">
	<rect width="959.4" height="960.6"/>
	<path class="st0" d="M571.3,554.1V400.9h28v153.2H571.3z"/>
	<path class="st0" d="M513.8,430.6c-7.3-12.1-17-20.4-29.2-24.8c-8.9-3.3-22.8-4.9-41.6-4.9h-79.8v153.2h28H421h24.5
		c29.1,0,49.6-7.3,61.5-22c11.9-14.7,17.8-33.6,17.8-56.9C524.7,457.6,521.1,442.7,513.8,430.6z M483.9,511.9
		c-8,7.8-20.6,11.7-37.9,11.7h-54.8v-92.3h54.2c14.6,0,24.6,1.4,30.2,4.1c5.6,2.7,10.3,7.7,14.3,15c3.9,7.3,5.9,16,5.9,26.2
		C495.8,492.3,491.8,504.1,483.9,511.9z"/>
	<path class="st0" d="M305.7,430.6c-7.3-12.1-17-20.4-29.2-24.8c-8.9-3.3-22.8-4.9-41.6-4.9h-79.8v203.4h28v-50.1h54.2
		c29.1,0,49.6-7.3,61.5-22c11.9-14.7,17.8-33.6,17.8-56.9C316.6,457.6,313,442.7,305.7,430.6z M275.8,511.9
		c-8,7.8-20.6,11.7-37.9,11.7h-54.8v-92.3h54.2c14.6,0,24.6,1.4,30.2,4.1c5.6,2.7,10.3,7.7,14.3,15c3.9,7.3,5.9,16,5.9,26.2
		C287.8,492.3,283.8,504.1,275.8,511.9z"/>
	<path class="st0" d="M765,496c-8.6-3.3-23.5-7.2-44.8-11.7c-21.7-4.6-35.7-9.1-41.9-13.6c-6.2-4.5-9.3-10.8-9.3-18.9
		c0-8.8,4.2-15.9,12.7-21.4c8.5-5.5,20.8-8.3,36.9-8.3c15.9,0,28.2,3.2,37,9.5c5.4,3.9,9.4,9.1,12,15.5h29.2
		c-1.7-7.5-4.7-14.3-9.1-20.3c-6.6-9-15.9-16-27.9-20.8c-12-4.8-26-7.3-42-7.3c-23.3,0-41.8,5.2-55.5,15.5
		c-13.7,10.3-20.6,23.6-20.6,39.9c0,9,2.4,17.2,7.2,24.3c4.8,7.2,11.5,13.1,20.1,17.8c8.6,4.7,23,9.3,43.4,13.9
		c22.8,5.2,37.6,9.2,44.5,12c6.9,2.8,12,6.5,15.4,10.9c3.4,4.4,5.1,9.6,5.1,15.5c0,10.1-4.7,18.4-14.1,24.7
		c-9.4,6.3-22.5,9.5-39.5,9.5c-11.8,0-22.5-1.9-31.9-5.6c-9.4-3.7-16.7-8.7-21.8-14.9c-1.9-2.3-3.5-5-4.9-8h-29.6
		c3.4,13.7,10.9,25.1,22.5,34.1c15.8,12.2,37.1,18.4,63.7,18.4c17.1,0,31.7-2.5,43.8-7.4c12.1-4.9,21.7-12.1,28.8-21.6
		c7-9.4,10.6-19.9,10.6-31.4c0-11.6-3.4-21.6-10.1-29.9C788.1,507.9,778.2,501.1,765,496z"/>
</g>
<g id="Layer_2">
</g>
</svg>
